<?xml version="1.0" encoding="utf-8"?>
<!-- Generator: Adobe Illustrator 26.1.0, SVG Export Plug-In . SVG Version: 6.00 Build 0)  -->
<svg version="1.1" id="Lager_1" xmlns="http://www.w3.org/2000/svg" xmlns:xlink="http://www.w3.org/1999/xlink" x="0px" y="0px"
	 viewBox="0 0 816.2 621" style="enable-background:new 0 0 816.2 621;" xml:space="preserve">
<style type="text/css">
	.st0{fill:#001A3B;}
	.st1{fill:#FFFFFF;}
	.st2{fill:#CBCBCB;}
	.st3{fill:#16C090;}
	.st4{fill:#F1F1F1;}
	.st5{fill:#FFB7B7;}
	.st6{fill:#3F3D56;}
	.st7{fill:#2F2E41;}
	.st8{opacity:0.1;enable-background:new    ;}
</style>
<path class="st0" d="M326.6,128.8h-3V47.2c0-26.1-21.1-47.2-47.2-47.2l0,0H103.6C77.5,0,56.4,21.1,56.4,47.2v447.5
	c0,26.1,21.1,47.2,47.2,47.2l0,0h172.8c26.1,0,47.2-21.1,47.2-47.2V186.8h3V128.8z"/>
<path class="st1" d="M278.3,12.3h-22.6c3.5,8.6-0.6,18.3-9.2,21.8c-2,0.8-4.2,1.2-6.3,1.2h-99c-9.3,0-16.7-7.5-16.7-16.8
	c0-2.2,0.4-4.3,1.2-6.3h-21.1c-19.5,0-35.3,15.8-35.3,35.3c0,0,0,0,0,0v446.8c0,19.5,15.8,35.3,35.3,35.3l0,0h173.7
	c19.5,0,35.3-15.8,35.3-35.3l0,0V47.5C313.6,28.1,297.8,12.3,278.3,12.3C278.3,12.3,278.3,12.3,278.3,12.3z"/>
<path class="st2" d="M382,542H1c-0.6,0-1-0.4-1-1s0.4-1,1-1h381c0.6,0,1,0.4,1,1S382.6,542,382,542z"/>
<circle id="baf12095-0797-4180-a98d-6422936d747a" class="st3" cx="191.5" cy="261.2" r="84.4"/>
<path id="b582f34e-fd02-4670-b1d8-d23f069ed737-588" class="st1" d="M183.1,293.4c-1.9,0-3.7-0.6-5.3-1.8l-0.1-0.1l-19.8-15.2
	c-3.9-3-4.6-8.5-1.6-12.4c3-3.9,8.5-4.6,12.4-1.6l0,0l12.9,9.9l30.4-39.6c3-3.9,8.5-4.6,12.4-1.6c0,0,0,0,0,0l0,0l-0.2,0.3l0.2-0.3
	c3.9,3,4.6,8.5,1.6,12.4L190.2,290C188.5,292.2,185.9,293.4,183.1,293.4L183.1,293.4z"/>
<path class="st4" d="M694.2,550.3c1-1.7,2.2-3.2,3.6-4.6c0.6-0.6,1.2-1.1,1.8-1.7c11.6-10.3,29.4-9.3,39.7,2.3
	c3.4,3.9,5.7,8.6,6.7,13.7c4.1-15.3-6.6-30.3-17.4-41.8c-10.8-11.5-23.1-24.2-23.1-40c0-8.8,4.3-16.6,10.8-22.5
	c0.2-0.2,0.4-0.4,0.6-0.5c7.9-6.7,18-10.3,28.3-9.9c19.2,1,36,13.9,47.6,29.2c18.7,24.6,27,59.2,13.8,87.2
	c-11.5,24.7-36.1,39.3-61.3,51.1c-3.5,1.6-7,3.2-10.5,4.8c0,0,0,0-0.1,0c-0.2,0.1-0.3,0.1-0.5,0.2c-0.7,0.3-1.4,0.6-2.2,1l0.3,0.2
	l1,0.7c-0.4-0.2-0.7-0.4-1.1-0.6c-0.1-0.1-0.2-0.1-0.3-0.2c-12.3-7.4-24.8-15.2-33.4-26.8C690,580.2,686.4,563,694.2,550.3z"/>
<path class="st1" d="M776.5,522.4c2.7,6.2,4.5,12.8,5.4,19.5c0.7,6,0.4,12.1-0.7,18c-2.4,12.2-7.8,23.6-15.6,33.3
	c-5.9,7.4-12.7,14-20.2,19.6c-3.5,1.6-7,3.2-10.5,4.8c0,0,0,0-0.1,0c-0.2,0.1-0.3,0.1-0.5,0.2c-0.7,0.3-1.4,0.6-2.2,1l0.3,0.2l1,0.7
	c-0.4-0.2-0.7-0.4-1.1-0.6c-0.1-0.1-0.2-0.1-0.3-0.2c5.5-19.3,1.3-40-11.2-55.6c-6.2-7.6-14.1-13.6-23.1-17.6
	c0.6-0.6,1.2-1.1,1.8-1.7c3.5,1.6,6.8,3.5,9.9,5.7c11.2,7.7,19.6,18.9,24,31.7c3.9,11.7,4.4,24.2,1.4,36.2c0.6-0.4,1.2-0.8,1.8-1.2
	c11.5-7.7,22.1-17.1,30.1-28.5c6.9-9.6,11.3-20.8,12.8-32.6c1.5-12.8-1.7-25.5-7.4-36.9c-6.3-12.3-14.3-23.6-23.7-33.7
	c-9.4-10.4-20.1-19.5-31.8-27.3c-0.5-0.4-0.7-1.1-0.4-1.7c0.1-0.2,0.3-0.4,0.6-0.5c0.3-0.1,0.6,0,0.8,0.2c1.4,1,2.9,1.9,4.3,2.9
	c11.7,8.3,22.4,18.1,31.8,29C762.8,497.9,771,509.6,776.5,522.4z"/>
<ellipse id="ae2e9f9a-ed63-4994-961d-af4fbb6f5199" transform="matrix(0.2128 -0.9771 0.9771 0.2128 392.5495 529.7716)" class="st4" cx="525" cy="21.3" rx="17.9" ry="17.9"/>
<circle id="b777be60-18da-4893-88a8-55a275d98bc2" class="st4" cx="748" cy="268.3" r="10.9"/>
<circle id="a703acd2-aa23-4bff-9a86-75b7d9a928c1" class="st4" cx="428" cy="298.3" r="10.9"/>
<path class="st2" d="M434.2,621h381c0.6,0,1-0.4,1-1s-0.4-1-1-1h-381c-0.6,0-1,0.4-1,1S433.7,621,434.2,621z"/>
<path class="st5" d="M773.2,96.6c1.1-8-4.5-15.4-12.5-16.6c-6.7-0.9-13.2,2.8-15.7,9.1l-30.9,35.4l9.1,25.3l31.1-41.4
	c7.7,2.5,15.9-1.8,18.3-9.4C772.9,98.3,773.1,97.5,773.2,96.6z"/>
<polygon class="st6" points="645,234.5 747.6,125 733.8,103 605.1,211.9 "/>
<circle class="st7" cx="622.1" cy="132" r="36"/>
<path class="st7" d="M625,111.7c7.7-7.9,17.1-13.9,27.5-17.8c6.6-2.5,13.9-4,20.8-2.6c6.9,1.4,13.5,6.2,15.4,13
	c1.6,5.6-0.1,11.6-2.5,16.8c-2.5,5.2-5.7,10.1-7.7,15.5c-6.7,18.4,2.7,38.8,21.1,45.5c4.7,1.7,9.6,2.4,14.5,2.1
	c-6.8,0.9-13.1,4.1-19.8,5.8c-6.7,1.7-14.5,1.6-19.5-3.2c-5.2-5.1-5.3-13.3-5.1-20.5c0.4-10.8,0.8-21.6,1.1-32.4
	c0.2-5.5,0.4-11.2-1.6-16.4c-2-5.1-6.7-9.7-12.2-9.6c-4.2,0-7.9,2.6-11.2,5.1c-3.4,2.5-6.9,5.2-11.1,5.5c-4.2,0.4-8.9-2.7-8.6-6.9
	L625,111.7z"/>
<path class="st5" d="M485.4,373.7c-7.8,2.2-15.9-2.4-18-10.2c-1.8-6.5,1.1-13.4,7-16.7l31.1-35.3l26.3,5.7l-37,36.2
	c3.4,7.3,0.3,16-7,19.4C487,373.2,486.2,373.5,485.4,373.7L485.4,373.7z"/>
<polygon class="st6" points="587.7,247.4 510.2,344.7 486.6,333.9 577.7,192 "/>
<polygon class="st5" points="525.8,541.2 507.4,540.9 509.6,603.9 525.8,603.9 "/>
<path class="st7" d="M530,598.6l-32,0h0c-11.3,0-20.4,9.1-20.4,20.4v0.7l52.4,0L530,598.6z"/>
<polygon class="st5" points="648.2,524.5 628,537.5 668.4,586 682,577.3 "/>
<path class="st7" d="M682.6,570.5l-26.9,17.3l0,0c-9.5,6.1-12.2,18.7-6.1,28.2l0.4,0.6l44.1-28.3L682.6,570.5z"/>
<path class="st6" d="M655.4,332.2c0,0-44.8-148.9-59.2-150.9s-37.6,38.2-37.6,38.2c-30.1,38.4-61.1,162.8-61.1,162.8
	s51.7,3.2,89.6,23.4s82.5-1,82.5-1L655.4,332.2z"/>
<path class="st8" d="M655.4,332.2c0,0-44.8-148.9-59.2-150.9s-31.7,38.6-31.7,38.6c-15,62-67,162.4-67,162.4s51.7,3.2,89.6,23.4
	s82.5-1,82.5-1L655.4,332.2z"/>
<polygon class="st7" points="618.6,287.7 618.6,362.5 627.4,470.9 671.4,552.9 650.4,567.9 590.4,489.9 566.6,412.5 529.4,583.9 
	501.4,581.9 520.8,344.2 557.7,277.3 "/>
<path class="st3" d="M573.4,215.3c-14,14-1,29-1,29l-16,36l63,17l22-98.4l-15-16c-30-1-30-1.6-30-1.6
	C591.1,186.4,573.4,215.3,573.4,215.3z"/>
<path class="st6" d="M643.9,188.7c-11.9-8.8-28.8-6.3-37.6,5.7c-0.1,0.1-0.1,0.2-0.2,0.2c-15.8,22.1-30.5,57.7-10.3,102.1
	c32.4,71.3,60.6,107.8,72.1,107.8c0.5,0,1-0.1,1.5-0.2c7.1-2.4,17.3-14.3,19.1-24.9c0.7-3.8,0.5-9-4-12.6
	c-12.9-10.3-36.2-42.6-43.4-85c-4-23.4,3.8-44.8,11-58.5c6.3-11.8,3-26.4-7.8-34.3l0,0L643.9,188.7z"/>
<circle class="st5" cx="611.2" cy="141.2" r="26.5"/>
<path class="st7" d="M574,139.2h38.3l0.4-5.5l2,5.5h5.9l0.8-10.9l3.9,10.9h11.4v-0.5c0-15.8-12.8-28.6-28.6-28.6h-5.4
	c-15.8,0-28.6,12.8-28.6,28.6V139.2z"/>
<path class="st7" d="M630.8,159l16.3-5.3V114h-30.8l0.8,0.8C627.7,125.4,639.5,163,630.8,159z"/>
<g>
	<path class="st0" d="M257.9,488c0-66.1,54.5-119.9,120.6-119.3c66.7,0.6,119.9,55.2,119.3,121.9c-0.6,64.8-54.5,118-119.9,118
		C311.2,609.2,257.9,555.4,257.9,488z M267.6,486.7c0,63.5,48.1,112.9,110.3,112.9c60.3,0,111-50,110.3-109.7
		c0-61.6-50-111.6-110.3-111.6C318.2,378.3,267.6,428.4,267.6,486.7z"/>
	<path class="st1" d="M267.6,486.7c0-58.4,50.7-107.8,110.3-108.4c60.3,0,110.3,50,110.3,111.6c0,59.6-50,109.7-110.3,109.7
		C315.7,599.6,267.6,550.2,267.6,486.7z M468.3,488c0-49.4-40.4-89.2-89.8-89.2c-50,0-90.4,40.4-89.8,90.4
		c0,49.4,40.4,89.2,89.8,89.2C427.9,579.1,468.3,538.7,468.3,488z"/>
	<path class="st0" d="M468.3,488c0,50-39.8,90.4-89.8,90.4c-49.4,0-89.2-39.8-89.8-89.2c0-50,39.8-90.4,89.8-90.4
		C427.9,398.9,467.7,438.6,468.3,488z M297.7,486.7c-1.9,43.6,33.4,80.8,77.6,82.7c43.6,1.9,80.8-32.7,83.4-77.6
		c1.9-44.3-34-82.1-78.9-83.4C336.2,407.2,299,442.5,297.7,486.7z"/>
	<path class="st1" d="M297.7,486.7c1.3-44.3,38.5-79.5,82.1-78.2c44.9,1.3,80.8,39.1,78.9,83.4c-1.9,44.9-39.1,79.5-83.4,77.6
		C331.1,567.6,295.8,530.4,297.7,486.7z M451.6,489.3c0.6-40.4-32.1-73.1-72.5-73.8s-73.8,31.4-74.4,71.8
		c-0.6,41,32.1,74.4,73.1,74.4C418.3,562.4,451,529.7,451.6,489.3z"/>
	<path class="st0" d="M451.6,489.3c-0.6,40.4-33.4,73.1-73.8,72.5c-41,0-73.8-34-73.1-74.4s34-72.5,74.4-71.8
		S451.6,448.9,451.6,489.3z M354.2,488.7c0,5.1-2.6,9-5.8,10.9c-7.1,5.1-14.1,9.6-21.2,14.1c-2.6,1.9-6.4,3.8-3.8,7.1
		c2.6,3.2,5.8,1.3,8.3,0c6.4-3.2,13.5-7.1,19.9-9.6c12.2-5.1,19.9-1.3,21.2,12.2c0.6,7.7,0.6,16,1.3,23.7c0,3.2,1.3,5.8,4.5,5.8
		c3.2,0,3.8-2.6,3.8-5.8c0-6.4,0.6-12.8,0.6-19.2c1.3-18.6,8.3-23.1,24.4-15.4c6.4,3.2,12.2,6.4,18.6,9c2.6,1.3,5.8,1.9,7.1-0.6
		c1.9-3.2-0.6-5.1-3.2-6.4c-7.1-4.5-14.1-9-21.2-14.1c-9.6-7.1-9.6-14.8,0-22.4c3.2-2.6,7.7-4.5,10.9-7.1
		c5.1-4.5,16.7-7.7,13.5-12.8c-5.1-7.7-12.8,1.9-18.6,4.5c-25,11.5-30.1,9-31.4-18.6c0-6.4,3.2-18-3.8-18c-9,0-5.1,12.2-5.1,18.6
		c-1.3,25.7-7.1,29.5-30.1,18c-6.4-3.2-16-12.2-19.2-6.4c-3.8,7.7,9,10.3,14.8,14.8C344.5,477.1,353.5,479,354.2,488.7z
		 M363.8,427.1c-10.3,1.9-17.3,5.8-24.4,10.9c-7.7,5.1-9,8.3,0.6,13.5c23.1,11.5,22.4,12.2,23.7-13.5
		C363.8,434.8,363.8,431.6,363.8,427.1z M392.6,426.4c0,9.6,0,18,0,25.7c0,4.5,1.3,9,7.7,6.4c7.7-3.8,20.5-5.8,21.8-12.8
		c1.3-7.1-10.9-10.9-18-14.8C401,429,397.1,428.4,392.6,426.4z M363.8,551.5c0-8.3,0-15.4,0-21.8c0-10.3-3.2-14.1-12.8-7.7
		c-5.8,3.8-17.3,4.5-17.3,11.5c0.6,7.1,10.9,10.3,18,14.1C354.8,549,358.6,549.6,363.8,551.5z M392,551.5
		c10.9-3.2,18.6-7.1,25.7-12.8c6.4-5.1,6.4-7.7-1.3-11.5c-23.7-12.8-23.7-12.8-25,13.5C392,543.8,392,547,392,551.5z M317,471.3
		c-3.2,12.2-3.8,23.7,0.6,35.9c9.6-5.1,23.7-9,25-18s-14.1-11.5-21.8-18C320.2,471.3,318.9,471.3,317,471.3z M438.8,468.8
		c-9.6,7.7-25,10.9-25,19.2c-0.6,9,14.8,12.8,23.7,18c0.6,0,1.3,0,1.9,0C443.3,495.1,442.7,483.5,438.8,468.8z"/>
	<path class="st1" d="M354.2,488.7c-0.6-9.6-9.6-11.5-15.4-16.7c-5.8-5.1-18.6-7.1-14.8-14.8c3.2-5.8,12.8,3.2,19.2,6.4
		c23.1,10.9,28.9,7.7,30.1-18c0-6.4-3.8-18,5.1-18.6c7.1,0,3.8,11.5,3.8,18c1.3,26.9,6.4,30.1,31.4,18.6c5.8-2.6,14.1-12.2,18.6-4.5
		c3.2,5.1-8.3,8.3-13.5,12.8c-3.2,2.6-7.1,4.5-10.9,7.1c-9,7.7-9,15.4,0,22.4c7.1,5.1,14.1,9.6,21.2,14.1c2.6,1.3,5.1,3.2,3.2,6.4
		c-1.3,2.6-4.5,1.9-7.1,0.6c-6.4-3.2-12.2-6.4-18.6-9c-16.7-7.7-23.7-3.2-24.4,15.4c-0.6,6.4-0.6,12.8-0.6,19.2
		c0,3.2-0.6,5.8-3.8,5.8c-3.2,0-4.5-2.6-4.5-5.8c0-7.7,0-16-1.3-23.7c-1.3-13.5-9-17.3-21.2-12.2c-7.1,3.2-13.5,6.4-19.9,9.6
		c-2.6,1.3-6.4,3.8-8.3,0c-2.6-3.8,1.3-5.8,3.8-7.1c7.1-5.1,14.1-9,21.2-14.1C351.6,497,354.2,493.2,354.2,488.7z M377.9,472
		c-9.6,1.3-16,6.4-16.7,16c-0.6,10.3,6.4,17.3,16.7,17.3c10.3,0,16.7-7.1,16.7-17.3C394.6,478.4,387.5,473.3,377.9,472z"/>
	<path class="st0" d="M377.9,472c9.6,1.3,16,6.4,16.7,16c0,10.3-6.4,17.3-16.7,17.3c-10.3,0-17.3-7.1-16.7-17.3
		C361.9,478.4,368.3,473.3,377.9,472z M384.9,488c-1.3-3.8-3.8-6.4-8.3-5.8c-3.2,0.6-5.8,3.2-5.8,6.4c0,3.8,3.2,7.1,7.1,6.4
		C382.4,495.1,384.9,492.5,384.9,488z"/>
</g>
<g>
	<path class="st0" d="M133.4,494.5c0-66.1,54.5-119.9,120.6-119.3c66.7,0.6,119.9,55.2,119.3,121.9c-0.6,64.8-54.5,118-119.9,118
		C186.6,615.7,133.4,561.9,133.4,494.5z M143,493.2c0,63.5,48.1,112.9,110.3,112.9c60.3,0,111-50,110.3-109.7
		c0-61.6-50-111.6-110.3-111.6C193.7,384.8,143,434.9,143,493.2z"/>
	<path class="st1" d="M143,493.2c0-58.4,50.7-107.8,110.3-108.4c60.3,0,110.3,50,110.3,111.6c0,59.6-50,109.7-110.3,109.7
		C191.1,606.1,143,556.7,143,493.2z M343.8,494.5c0-49.4-40.4-89.2-89.8-89.2c-50,0-90.4,40.4-89.8,90.4c0,49.4,40.4,89.2,89.8,89.2
		C303.4,585.6,343.8,545.2,343.8,494.5z"/>
	<path class="st0" d="M343.8,494.5c0,50-39.8,90.4-89.8,90.4c-49.4,0-89.2-39.8-89.8-89.2c0-50,39.8-90.4,89.8-90.4
		C303.4,405.4,343.1,445.1,343.8,494.5z M173.2,493.2c-1.9,43.6,33.4,80.8,77.6,82.7c43.6,1.9,80.8-32.7,83.4-77.6
		c1.9-44.3-34-82.1-78.9-83.4C211.6,413.7,174.4,449,173.2,493.2z"/>
	<path class="st1" d="M173.2,493.2c1.3-44.3,38.5-79.5,82.1-78.2c44.9,1.3,80.8,39.1,78.9,83.4c-1.9,44.9-39.1,79.5-83.4,77.6
		C206.5,574,171.2,536.8,173.2,493.2z M327.1,495.8c0.6-40.4-32.1-73.1-72.5-73.8s-73.8,31.4-74.4,71.8c-0.6,41,32.1,74.4,73.1,74.4
		C293.7,568.9,326.5,536.2,327.1,495.8z"/>
	<path class="st0" d="M327.1,495.8c-0.6,40.4-33.4,73.1-73.8,72.5c-41,0-73.8-34-73.1-74.4s34-72.5,74.4-71.8
		S327.1,455.4,327.1,495.8z M229.6,495.2c0,5.1-2.6,9-5.8,10.9c-7.1,5.1-14.1,9.6-21.2,14.1c-2.6,1.9-6.4,3.8-3.8,7.1s5.8,1.3,8.3,0
		c6.4-3.2,13.5-7.1,19.9-9.6c12.2-5.1,19.9-1.3,21.2,12.2c0.6,7.7,0.6,16,1.3,23.7c0,3.2,1.3,5.8,4.5,5.8c3.2,0,3.8-2.6,3.8-5.8
		c0-6.4,0.6-12.8,0.6-19.2c1.3-18.6,8.3-23.1,24.4-15.4c6.4,3.2,12.2,6.4,18.6,9c2.6,1.3,5.8,1.9,7.1-0.6c1.9-3.2-0.6-5.1-3.2-6.4
		c-7.1-4.5-14.1-9-21.2-14.1c-9.6-7.1-9.6-14.8,0-22.4c3.2-2.6,7.7-4.5,10.9-7.1c5.1-4.5,16.7-7.7,13.5-12.8
		c-5.1-7.7-12.8,1.9-18.6,4.5c-25,11.5-30.1,9-31.4-18.6c0-6.4,3.2-18-3.8-18c-9,0-5.1,12.2-5.1,18.6c-1.3,25.7-7.1,29.5-30.1,18
		c-6.4-3.2-16-12.2-19.2-6.4c-3.8,7.7,9,10.3,14.8,14.8C220,483.6,229,485.5,229.6,495.2z M239.2,433.6
		c-10.3,1.9-17.3,5.8-24.4,10.9c-7.7,5.1-9,8.3,0.6,13.5c23.1,11.5,22.4,12.2,23.7-13.5C239.2,441.3,239.2,438.1,239.2,433.6z
		 M268.1,432.9c0,9.6,0,18,0,25.7c0,4.5,1.3,9,7.7,6.4c7.7-3.8,20.5-5.8,21.8-12.8c1.3-7.1-10.9-10.9-18-14.8
		C276.4,435.5,272.6,434.9,268.1,432.9z M239.2,558c0-8.3,0-15.4,0-21.8c0-10.3-3.2-14.1-12.8-7.7c-5.8,3.8-17.3,4.5-17.3,11.5
		c0.6,7.1,10.9,10.3,18,14.1C230.2,555.4,234.1,556.1,239.2,558z M267.4,558c10.9-3.2,18.6-7.1,25.7-12.8c6.4-5.1,6.4-7.7-1.3-11.5
		c-23.7-12.8-23.7-12.8-25,13.5C267.4,550.3,267.4,553.5,267.4,558z M192.4,477.8c-3.2,12.2-3.8,23.7,0.6,35.9c9.6-5.1,23.7-9,25-18
		c1.3-9-14.1-11.5-21.8-18C195.6,477.8,194.3,477.8,192.4,477.8z M314.3,475.3c-9.6,7.7-25,10.9-25,19.2c-0.6,9,14.8,12.8,23.7,18
		c0.6,0,1.3,0,1.9,0C318.8,501.6,318.1,490,314.3,475.3z"/>
	<path class="st1" d="M229.6,495.2c-0.6-9.6-9.6-11.5-15.4-16.7s-18.6-7.1-14.8-14.8c3.2-5.8,12.8,3.2,19.2,6.4
		c23.1,10.9,28.9,7.7,30.1-18c0-6.4-3.8-18,5.1-18.6c7.1,0,3.8,11.5,3.8,18c1.3,26.9,6.4,30.1,31.4,18.6c5.8-2.6,14.1-12.2,18.6-4.5
		c3.2,5.1-8.3,8.3-13.5,12.8c-3.2,2.6-7.1,4.5-10.9,7.1c-9,7.7-9,15.4,0,22.4c7.1,5.1,14.1,9.6,21.2,14.1c2.6,1.3,5.1,3.2,3.2,6.4
		c-1.3,2.6-4.5,1.9-7.1,0.6c-6.4-3.2-12.2-6.4-18.6-9c-16.7-7.7-23.7-3.2-24.4,15.4c-0.6,6.4-0.6,12.8-0.6,19.2
		c0,3.2-0.6,5.8-3.8,5.8c-3.2,0-4.5-2.6-4.5-5.8c0-7.7,0-16-1.3-23.7c-1.3-13.5-9-17.3-21.2-12.2c-7.1,3.2-13.5,6.4-19.9,9.6
		c-2.6,1.3-6.4,3.8-8.3,0c-2.6-3.8,1.3-5.8,3.8-7.1c7.1-5.1,14.1-9,21.2-14.1C227,503.5,229.6,499.6,229.6,495.2z M253.3,478.5
		c-9.6,1.3-16,6.4-16.7,16c-0.6,10.3,6.4,17.3,16.7,17.3s16.7-7.1,16.7-17.3C270,484.9,263,479.8,253.3,478.5z"/>
	<path class="st0" d="M253.3,478.5c9.6,1.3,16,6.4,16.7,16c0,10.3-6.4,17.3-16.7,17.3s-17.3-7.1-16.7-17.3
		C237.3,484.9,243.7,479.8,253.3,478.5z M260.4,494.5c-1.3-3.8-3.8-6.4-8.3-5.8c-3.2,0.6-5.8,3.2-5.8,6.4c0,3.8,3.2,7.1,7.1,6.4
		C257.8,501.6,260.4,499,260.4,494.5z"/>
</g>
</svg>
