<?xml version="1.0" encoding="utf-8"?>
<!-- Generator: Adobe Illustrator 26.1.0, SVG Export Plug-In . SVG Version: 6.00 Build 0)  -->
<svg version="1.1" id="Lager_1" xmlns="http://www.w3.org/2000/svg" xmlns:xlink="http://www.w3.org/1999/xlink" x="0px" y="0px"
	 viewBox="0 0 37.5 37.5" style="enable-background:new 0 0 37.5 37.5;" xml:space="preserve">
<style type="text/css">
	.st0{fill:#122A48;}
	.st1{fill:#F5F6F7;}
	.st2{fill:#142C4A;}
	.st3{fill:#D6DADF;}
	.st4{fill:#0F2746;}
	.st5{fill:#EAECEE;}
	.st6{fill:#1E3451;}
</style>
<g className="spin">
	<path class="st0" d="M0,18.6C0,8.3,8.5-0.1,18.8,0c10.4,0.1,18.7,8.6,18.6,19c-0.1,10.1-8.5,18.4-18.7,18.4C8.3,37.5,0,29.1,0,18.6
		z M1.5,18.4C1.5,28.3,9,36,18.7,36c9.4,0,17.3-7.8,17.2-17.1c0-9.6-7.8-17.4-17.2-17.4C9.4,1.5,1.5,9.3,1.5,18.4z"/>
	<path class="st1" d="M1.5,18.4c0-9.1,7.9-16.8,17.2-16.9c9.4,0,17.2,7.8,17.2,17.4c0,9.3-7.8,17.1-17.2,17.1
		C9,36,1.5,28.3,1.5,18.4z M32.8,18.6c0-7.7-6.3-13.9-14-13.9c-7.8,0-14.1,6.3-14,14.1c0,7.7,6.3,13.9,14,13.9
		C26.5,32.8,32.8,26.5,32.8,18.6z"/>
	<path class="st2" d="M32.8,18.6c0,7.8-6.2,14.1-14,14.1c-7.7,0-13.9-6.2-14-13.9c0-7.8,6.2-14.1,14-14.1
		C26.5,4.7,32.7,10.9,32.8,18.6z M6.2,18.4C5.9,25.2,11.4,31,18.3,31.3c6.8,0.3,12.6-5.1,13-12.1C31.6,12.3,26,6.4,19,6.2
		C12.2,6,6.4,11.5,6.2,18.4z"/>
	<path class="st3" d="M6.2,18.4C6.4,11.5,12.2,6,19,6.2c7,0.2,12.6,6.1,12.3,13c-0.3,7-6.1,12.4-13,12.1C11.4,31,5.9,25.2,6.2,18.4z
		 M30.2,18.8c0.1-6.3-5-11.4-11.3-11.5C12.6,7.2,7.4,12.2,7.3,18.5c-0.1,6.4,5,11.6,11.4,11.6C25,30.2,30.1,25.1,30.2,18.8z"/>
	<path class="st4" d="M30.2,18.8c-0.1,6.3-5.2,11.4-11.5,11.3c-6.4,0-11.5-5.3-11.4-11.6c0.1-6.3,5.3-11.3,11.6-11.2
		C25.2,7.4,30.2,12.5,30.2,18.8z M15,18.7c0,0.8-0.4,1.4-0.9,1.7c-1.1,0.8-2.2,1.5-3.3,2.2c-0.4,0.3-1,0.6-0.6,1.1
		c0.4,0.5,0.9,0.2,1.3,0c1-0.5,2.1-1.1,3.1-1.5c1.9-0.8,3.1-0.2,3.3,1.9c0.1,1.2,0.1,2.5,0.2,3.7c0,0.5,0.2,0.9,0.7,0.9
		s0.6-0.4,0.6-0.9c0-1,0.1-2,0.1-3c0.2-2.9,1.3-3.6,3.8-2.4c1,0.5,1.9,1,2.9,1.4c0.4,0.2,0.9,0.3,1.1-0.1c0.3-0.5-0.1-0.8-0.5-1
		c-1.1-0.7-2.2-1.4-3.3-2.2c-1.5-1.1-1.5-2.3,0-3.5c0.5-0.4,1.2-0.7,1.7-1.1c0.8-0.7,2.6-1.2,2.1-2c-0.8-1.2-2,0.3-2.9,0.7
		c-3.9,1.8-4.7,1.4-4.9-2.9c0-1,0.5-2.8-0.6-2.8c-1.4,0-0.8,1.9-0.8,2.9c-0.2,4-1.1,4.6-4.7,2.8c-1-0.5-2.5-1.9-3-1
		c-0.6,1.2,1.4,1.6,2.3,2.3C13.5,16.9,14.9,17.2,15,18.7z M16.5,9.1c-1.6,0.3-2.7,0.9-3.8,1.7c-1.2,0.8-1.4,1.3,0.1,2.1
		c3.6,1.8,3.5,1.9,3.7-2.1C16.5,10.3,16.5,9.8,16.5,9.1z M21,9c0,1.5,0,2.8,0,4c0,0.7,0.2,1.4,1.2,1c1.2-0.6,3.2-0.9,3.4-2
		s-1.7-1.7-2.8-2.3C22.3,9.4,21.7,9.3,21,9z M16.5,28.5c0-1.3,0-2.4,0-3.4c0-1.6-0.5-2.2-2-1.2c-0.9,0.6-2.7,0.7-2.7,1.8
		c0.1,1.1,1.7,1.6,2.8,2.2C15.1,28.1,15.7,28.2,16.5,28.5z M20.9,28.5c1.7-0.5,2.9-1.1,4-2c1-0.8,1-1.2-0.2-1.8
		c-3.7-2-3.7-2-3.9,2.1C20.9,27.3,20.9,27.8,20.9,28.5z M9.2,16c-0.5,1.9-0.6,3.7,0.1,5.6c1.5-0.8,3.7-1.4,3.9-2.8
		c0.2-1.4-2.2-1.8-3.4-2.8C9.7,16,9.5,16,9.2,16z M28.2,15.6c-1.5,1.2-3.9,1.7-3.9,3c-0.1,1.4,2.3,2,3.7,2.8c0.1,0,0.2,0,0.3,0
		C28.9,19.7,28.8,17.9,28.2,15.6z"/>
	<path class="st5" d="M15,18.7c-0.1-1.5-1.5-1.8-2.4-2.6c-0.9-0.8-2.9-1.1-2.3-2.3c0.5-0.9,2,0.5,3,1c3.6,1.7,4.5,1.2,4.7-2.8
		c0-1-0.6-2.8,0.8-2.9c1.1,0,0.6,1.8,0.6,2.8c0.2,4.2,1,4.7,4.9,2.9c0.9-0.4,2.2-1.9,2.9-0.7c0.5,0.8-1.3,1.3-2.1,2
		c-0.5,0.4-1.1,0.7-1.7,1.1c-1.4,1.2-1.4,2.4,0,3.5c1.1,0.8,2.2,1.5,3.3,2.2c0.4,0.2,0.8,0.5,0.5,1c-0.2,0.4-0.7,0.3-1.1,0.1
		c-1-0.5-1.9-1-2.9-1.4c-2.6-1.2-3.7-0.5-3.8,2.4c-0.1,1-0.1,2-0.1,3c0,0.5-0.1,0.9-0.6,0.9c-0.5,0-0.7-0.4-0.7-0.9
		c0-1.2,0-2.5-0.2-3.7c-0.2-2.1-1.4-2.7-3.3-1.9c-1.1,0.5-2.1,1-3.1,1.5c-0.4,0.2-1,0.6-1.3,0c-0.4-0.6,0.2-0.9,0.6-1.1
		c1.1-0.8,2.2-1.4,3.3-2.2C14.6,20,15,19.4,15,18.7z M18.7,16.1c-1.5,0.2-2.5,1-2.6,2.5c-0.1,1.6,1,2.7,2.6,2.7
		c1.6,0,2.6-1.1,2.6-2.7C21.3,17.1,20.2,16.3,18.7,16.1z"/>
	<path class="st6" d="M18.7,16.1c1.5,0.2,2.5,1,2.6,2.5c0,1.6-1,2.7-2.6,2.7c-1.6,0-2.7-1.1-2.6-2.7C16.2,17.1,17.2,16.3,18.7,16.1z
		 M19.8,18.6c-0.2-0.6-0.6-1-1.3-0.9c-0.5,0.1-0.9,0.5-0.9,1c0,0.6,0.5,1.1,1.1,1C19.4,19.7,19.8,19.3,19.8,18.6z"/>
</g>
</svg>
