<?xml version="1.0" encoding="utf-8"?>
<!-- Generator: Adobe Illustrator 26.1.0, SVG Export Plug-In . SVG Version: 6.00 Build 0)  -->
<svg version="1.1" id="Lager_1" xmlns="http://www.w3.org/2000/svg" xmlns:xlink="http://www.w3.org/1999/xlink" x="0px" y="0px"
	 viewBox="0 0 24 24" style="enable-background:new 0 0 24 24;" xml:space="preserve">
<style type="text/css">
	.st0{fill:#001a3b;}
	.st1{fill:#001a3b;}
</style>
<g>
	<path className="st0" d="M23.9,15.1c-0.2,0.4-0.5,0.6-1,0.6c-0.4,0-0.9,0-1.3,0c-0.5,0-0.8-0.3-0.8-0.8c0-0.5,0.3-0.8,0.8-0.8
		c0.2,0,0.4,0,0.6,0c0.1,0,0.1,0,0.1-0.2c-0.2-2.1-1-3.9-2.3-5.6c-0.1-0.1-0.1-0.1-0.3,0c-0.1,0.2-0.3,0.3-0.5,0.4
		c-0.3,0.3-0.8,0.2-1.1-0.1c-0.3-0.3-0.3-0.8,0-1.1c0.2-0.2,0.4-0.4,0.6-0.5c-0.7-0.6-1.4-1-2.1-1.4c-1-0.5-2-0.8-3.1-1
		c-0.2,0-0.4,0-0.5-0.1c-0.1,0-0.2,0-0.2,0.1c0,0.2,0,0.4,0,0.6c0,0.4-0.4,0.8-0.8,0.8c-0.4,0-0.8-0.3-0.8-0.8c0-0.2,0-0.4,0-0.6
		c0-0.2,0-0.2-0.2-0.2C10.1,4.8,9.2,5,8.3,5.4c-1,0.4-2,1-2.8,1.7c-0.1,0.1-0.1,0.1,0,0.2c0.1,0.1,0.3,0.3,0.4,0.4
		c0.3,0.3,0.3,0.8,0,1.1c-0.3,0.3-0.8,0.3-1.1,0C4.6,8.7,4.5,8.5,4.3,8.4c-0.1-0.1-0.1-0.1-0.2,0C3,9.8,2.2,11.4,1.9,13.3
		c0,0.2-0.1,0.5-0.1,0.7c0,0.1,0,0.1,0.1,0.1c0.2,0,0.5,0,0.7,0c0.4,0,0.7,0.4,0.7,0.8c0,0.4-0.3,0.8-0.7,0.8c-0.6,0-1.1,0-1.7,0
		c-0.4,0-0.7-0.4-0.7-0.8c0-3,1.1-5.7,3.1-7.9C5,5,7.2,3.8,9.7,3.3C11,3,12.2,3,13.5,3.2c2.6,0.3,4.8,1.4,6.7,3.2
		c1.7,1.6,2.8,3.6,3.4,6c0.1,0.5,0.2,1,0.2,1.6c0,0,0,0.1,0,0.1C23.9,14.4,23.9,14.7,23.9,15.1z"/>
	<path className="st0" d="M23.9,19.4c-0.1,0.2-0.3,0.3-0.6,0.2c-0.3,0-0.6,0-0.8,0c-0.1,0-0.2,0-0.2,0.2c0,0.3,0,0.6,0,0.9
		c0,0.3-0.2,0.5-0.4,0.5c-0.2,0-0.4-0.2-0.4-0.5c0-1,0-2,0-3c0-0.3,0.1-0.5,0.5-0.5c0.4,0,0.9,0,1.3,0c0.2,0,0.4,0,0.6,0.2
		c0,0.1,0,0.2,0,0.3c-0.2,0.2-0.4,0.3-0.6,0.2c-0.1,0-0.2,0-0.4,0c-0.2,0-0.5-0.1-0.6,0c-0.1,0.1,0,0.4,0,0.6c0,0.1,0,0.1,0.1,0.1
		c0.3,0,0.6,0,0.8,0c0.2,0,0.4,0,0.6,0.2C23.9,19.2,23.9,19.3,23.9,19.4z"/>
	<path className="st0" d="M12,19.6c-0.8,0-1.4-0.5-1.6-1.3c0-0.1-0.1-0.2-0.2-0.3c-1.8-0.9-3.5-1.8-5.3-2.7c0,0-0.1,0-0.1-0.1
		c-0.3-0.1-0.3-0.3-0.2-0.5c0.1-0.2,0.3-0.3,0.6-0.2C5.7,14.8,6.4,15,7,15.3c1.3,0.5,2.6,1,3.9,1.5c0.1,0,0.2,0.1,0.3,0
		c0.6-0.4,1.3-0.3,1.8,0.1c0.5,0.4,0.7,1.1,0.5,1.8C13.3,19.2,12.7,19.7,12,19.6z"/>
	<path className="st0" d="M0.2,19.2c0-0.5,0-1,0-1.5c0-0.3,0.1-0.5,0.4-0.5c0.5,0,1,0,1.5,0c0.3,0,0.4,0.2,0.4,0.4
		c0,0.2-0.2,0.4-0.4,0.4c-0.3,0-0.6,0-1,0c-0.1,0-0.2,0-0.2,0.2c0,0.2-0.1,0.5,0,0.6c0.1,0.1,0.4,0,0.6,0c0.2,0,0.4,0,0.6,0
		c0.2,0,0.4,0.2,0.4,0.4c0,0.2-0.1,0.4-0.4,0.4c-0.3,0-0.7,0-1,0c-0.1,0-0.2,0-0.2,0.2c0,0.2-0.1,0.4,0,0.6c0.1,0.1,0.4,0,0.5,0
		c0.2,0,0.4,0,0.6,0c0.2,0,0.4,0.2,0.4,0.4c0,0.2-0.1,0.4-0.4,0.4c-0.5,0-1,0-1.6,0c-0.3,0-0.4-0.2-0.4-0.4
		C0.2,20.3,0.2,19.8,0.2,19.2z"/>
</g>
</svg>
