<?xml version="1.0" encoding="utf-8"?>
<!-- Generator: Adobe Illustrator 26.1.0, SVG Export Plug-In . SVG Version: 6.00 Build 0)  -->
<svg version="1.1" id="Lager_1" xmlns="http://www.w3.org/2000/svg" xmlns:xlink="http://www.w3.org/1999/xlink" x="0px" y="0px"
	 viewBox="0 0 1440 504" style="enable-background:new 0 0 1440 504;" xml:space="preserve">
<style type="text/css">
	.st0{fill:#001A3B;}
	.st1{fill:none;stroke:#001A3B;stroke-width:2;}
</style>
<path class="st0" d="M1021.9,250.1c0.2-0.1,0.3-0.2,0.4-0.4c0.1-0.2,0.2-0.3,0.2-0.5c0-0.2,0-0.4-0.1-0.5c-0.1-0.2-0.2-0.3-0.3-0.5
	c-2.5-2.4-5.7-4-9.2-4.6c-0.2,0-0.4,0-0.6,0c-0.2,0-0.4,0.1-0.5,0.3c-0.1,0.1-0.3,0.3-0.3,0.4c-0.1,0.2-0.1,0.4-0.1,0.5v10
	c0,0.2,0.1,0.5,0.2,0.7c0.1,0.2,0.3,0.4,0.5,0.5c0.2,0.1,0.4,0.1,0.6,0.1c0.3,0,0.5-0.1,0.8-0.2L1021.9,250.1z M1019,248.9l-5,3.4
	v-5.9C1015.8,247,1017.5,247.8,1019,248.9z"/>
<path class="st0" d="M1006.2,260.1c0-0.2-0.1-0.4-0.2-0.6c-0.1-0.2-0.3-0.3-0.5-0.4l-9.6-5.6c-0.2-0.1-0.4-0.2-0.5-0.2
	c-0.2,0-0.4,0-0.6,0.1c-0.2,0.1-0.3,0.2-0.5,0.3c-0.1,0.1-0.2,0.3-0.3,0.5c-0.7,1.9-1.1,3.8-1.1,5.8c0,2.4,0.5,4.9,1.6,7.1
	c0.1,0.2,0.2,0.3,0.3,0.4c0.1,0.1,0.3,0.2,0.5,0.3c0.1,0,0.2,0,0.3,0c0.3,0,0.5-0.1,0.7-0.2l9.2-6.3c0.2-0.1,0.3-0.3,0.4-0.5
	C1006.2,260.6,1006.2,260.4,1006.2,260.1L1006.2,260.1z M1002.5,260.3l-6.1,4.2c-0.5-1.5-0.8-3-0.8-4.5c0-1.2,0.2-2.3,0.4-3.5
	L1002.5,260.3z"/>
<path class="st0" d="M1014,260.5c0.1,0.2,0.3,0.3,0.5,0.4l9.6,5.6c0.2,0.1,0.4,0.2,0.7,0.2c0.1,0,0.3,0,0.4-0.1
	c0.2-0.1,0.3-0.2,0.5-0.3c0.1-0.1,0.2-0.3,0.3-0.5c0.7-1.9,1.1-3.8,1.1-5.8c0-2.4-0.5-4.8-1.6-7c-0.1-0.2-0.2-0.3-0.3-0.4
	c-0.1-0.1-0.3-0.2-0.5-0.3c-0.2,0-0.4-0.1-0.6,0c-0.2,0-0.4,0.1-0.5,0.2l-9.2,6.3c-0.2,0.1-0.3,0.3-0.4,0.5
	c-0.1,0.2-0.1,0.4-0.1,0.6C1013.8,260.1,1013.9,260.3,1014,260.5z M1017.5,259.7l6.1-4.2c0.5,1.5,0.8,3,0.8,4.5
	c0,1.2-0.2,2.3-0.4,3.5L1017.5,259.7z"/>
<path class="st0" d="M1011.5,264c-0.1,0.2-0.2,0.4-0.2,0.6v10.5c0,0.3,0.1,0.7,0.4,0.9c0.2,0.2,0.6,0.4,0.9,0.4h0.2
	c3.9-0.6,7.5-2.6,10-5.5c0.1-0.1,0.2-0.3,0.3-0.5c0.1-0.2,0.1-0.4,0-0.6c0-0.2-0.1-0.4-0.2-0.5c-0.1-0.2-0.2-0.3-0.4-0.4l-9.3-5.4
	c-0.2-0.1-0.4-0.2-0.7-0.2c-0.2,0-0.5,0.1-0.7,0.2C1011.8,263.7,1011.6,263.8,1011.5,264z M1013.9,266.9l5.9,3.4
	c-1.7,1.5-3.7,2.6-5.9,3.2V266.9z"/>
<path class="st0" d="M998.1,269.9c-0.2,0.1-0.3,0.2-0.4,0.4c-0.1,0.2-0.2,0.3-0.2,0.5c0,0.2,0,0.4,0.1,0.5c0.1,0.2,0.2,0.3,0.3,0.5
	c2.5,2.4,5.7,4,9.2,4.6h0.2c0.3,0,0.7-0.1,0.9-0.4c0.2-0.2,0.4-0.6,0.4-0.9v-10c0-0.2-0.1-0.5-0.2-0.7c-0.1-0.2-0.3-0.4-0.5-0.5
	s-0.5-0.2-0.7-0.1s-0.5,0.1-0.7,0.2L998.1,269.9z M1006.1,273.5c-1.8-0.5-3.5-1.3-5-2.5l5-3.4V273.5L1006.1,273.5z"/>
<path class="st0" d="M1008.5,256c0.1-0.2,0.2-0.4,0.2-0.6v-10.5c0-0.2,0-0.4-0.1-0.5s-0.2-0.3-0.3-0.4c-0.1-0.1-0.3-0.2-0.5-0.3
	c-0.2-0.1-0.4-0.1-0.6,0c-3.9,0.6-7.5,2.6-10,5.5c-0.1,0.1-0.2,0.3-0.3,0.5c-0.1,0.2-0.1,0.4,0,0.6c0,0.2,0.1,0.4,0.2,0.5
	c0.1,0.2,0.2,0.3,0.4,0.4l9.3,5.4c0.2,0.1,0.4,0.2,0.7,0.2c0.2,0,0.5-0.1,0.7-0.2C1008.2,256.3,1008.4,256.1,1008.5,256z
	 M1006.1,253.1l-5.9-3.4c1.7-1.5,3.7-2.6,5.9-3.2V253.1z"/>
<path class="st0" d="M1010,220.3c-10.8,0-21.1,4.2-28.8,11.6c-7.6,7.4-11.9,17.6-11.9,28.1c0,7.9,2.4,15.5,6.9,22.1
	c4.5,6.5,10.8,11.6,18.3,14.6c7.4,3,15.6,3.8,23.5,2.3c7.9-1.5,15.1-5.3,20.8-10.9c5.7-5.6,9.6-12.6,11.1-20.3
	c1.6-7.7,0.8-15.7-2.3-22.9c-3.1-7.3-8.3-13.5-15-17.8C1025.9,222.6,1018,220.3,1010,220.3L1010,220.3z M983.1,286.3
	c-7.1-7-11.1-16.4-11.1-26.3c0-7.3,2.2-14.5,6.4-20.6c4.2-6.1,10.1-10.9,17.1-13.7s14.6-3.5,22-2.1c7.4,1.4,14.2,5,19.5,10.2
	c5.3,5.2,8.9,11.8,10.4,19c1.5,7.2,0.7,14.7-2.2,21.5c-2.9,6.8-7.8,12.6-14,16.7c-6.3,4.1-13.6,6.3-21.1,6.3
	C999.9,297.2,990.2,293.2,983.1,286.3z"/>
<path class="st0" d="M994.2,244.6c-4.2,4.1-6.5,9.6-6.5,15.4c0,4.3,1.3,8.5,3.8,12.1c2.5,3.6,5.9,6.4,10,8c4.1,1.6,8.6,2.1,12.9,1.2
	c4.3-0.8,8.3-2.9,11.4-6c3.1-3,5.2-6.9,6.1-11.2c0.9-4.2,0.4-8.6-1.3-12.6c-1.7-4-4.5-7.4-8.2-9.8c-3.7-2.4-8-3.7-12.4-3.7
	C1004.1,238.2,998.4,240.5,994.2,244.6z M996.1,273.6c-3.7-3.6-5.8-8.5-5.8-13.6c0-3.8,1.2-7.5,3.3-10.7c2.2-3.2,5.2-5.6,8.8-7.1
	c3.6-1.5,7.6-1.8,11.4-1.1c3.8,0.7,7.3,2.6,10.1,5.3c2.8,2.7,4.6,6.1,5.4,9.8c0.8,3.7,0.4,7.6-1.1,11.1c-1.5,3.5-4,6.5-7.3,8.6
	c-3.2,2.1-7,3.2-10.9,3.2C1004.8,279.2,999.8,277.2,996.1,273.6z"/>
<path class="st0" d="M1012.6,260c0-1.4-1.2-2.6-2.6-2.6s-2.6,1.1-2.6,2.6s1.2,2.6,2.6,2.6S1012.6,261.4,1012.6,260z"/>
<path class="st0" d="M1010,228c-4.3,0-8.6,0.8-12.6,2.4c-4,1.6-7.6,4-10.6,6.9c-3,3-5.5,6.5-7.1,10.4c-1.6,3.9-2.5,8.1-2.5,12.3h2.6
	c0-7.8,3.2-15.3,8.8-20.8c5.7-5.5,13.3-8.6,21.3-8.6V228L1010,228z"/>
<path class="st0" d="M1031.3,280.8c-5.7,5.5-13.3,8.6-21.3,8.6v2.6c8.7,0,17-3.4,23.2-9.4c6.2-6,9.6-14.2,9.6-22.6h-2.6
	C1040.2,267.8,1037,275.3,1031.3,280.8z"/>
<path class="st1" d="M0,1c97,5.7,249,281.1,426,350c177,68.8,378-50.2,617-53.1c191.2-2.3,344.3,135.8,397,205.1"/>
</svg>
